Coordinates
version=1
nRows=10
nColumns=40
inDegrees=yes

Units are S.I. units (second, meters, Newtons, ...)
If the header above contains a line with 'inDegrees', this indicates whether rotational values are in degrees (yes) or radians (no).

endheader
time	pelvis_tilt	pelvis_list	pelvis_rotation	pelvis_tx	pelvis_ty	pelvis_tz	hip_flexion_r	hip_adduction_r	hip_rotation_r	knee_angle_r	knee_angle_r_beta	ankle_angle_r	subtalar_angle_r	mtp_angle_r	hip_flexion_l	hip_adduction_l	hip_rotation_l	knee_angle_l	knee_angle_l_beta	ankle_angle_l	subtalar_angle_l	mtp_angle_l	lumbar_extension	lumbar_bending	lumbar_rotation	arm_flex_r	arm_add_r	arm_rot_r	elbow_flex_r	pro_sup_r	wrist_flex_r	wrist_dev_r	arm_flex_l	arm_add_l	arm_rot_l	elbow_flex_l	pro_sup_l	wrist_flex_l	wrist_dev_l
     10.69999999999999928946	      3.21177296292510261466	      2.40999452016377002650	   -175.99417234162126533192	      0.24476873928785813916	      0.77053167308316794504	     -0.92079208946307622430	     37.46038273850630417883	    -39.03154761548769613455	    -24.20792024563050404140	     45.65554167956394593375	      0.79683952408989278116	     -2.74352799735433761086	      0.00000000000000000000	      0.00000000000000000000	     45.58562152198214079135	    -41.77719323546313034967	    -14.10554447357707097410	     48.43529979394627105194	      0.84535545559489344569	     -6.20578888606741063683	      0.00000000000000000000	      0.00000000000000000000	    -52.36781428423709172648	      6.30308674736874507971	     -6.29424765490934756684	     43.99868159207506579378	      1.92879288789786218494	     21.19778908011285878388	      6.29644664104167794960	     18.43374453479689023538	      0.00000000000000000000	      0.00000000000000000000	     46.47104207517480034539	     -8.75789538550958290841	     61.08952286815090815253	      5.78245978671819926831	     75.26604069118205586619	      0.00000000000000000000	      0.00000000000000000000
     10.70500000000000007105	      3.41669429845793759526	      2.43100098806370068516	   -176.08933963224745866682	      0.24497137975832070089	      0.77235681086444485377	     -0.92072438208782680924	     37.36592040023843708241	    -38.82606639333551612481	    -24.41308514385703176686	     45.06211298115803742803	      0.78648223942688522126	     -3.20004489574213701886	      0.00000000000000000000	      0.00000000000000000000	     45.36002200789938854086	    -41.63525620550697681210	    -14.26573951782375182518	     47.88931950735981502021	      0.83582630194297757864	     -6.41892512176287866055	      0.00000000000000000000	      0.00000000000000000000	    -51.97445398827205309544	      6.28366679309877351756	     -6.22743124501723510633	     43.81230823574038168999	      1.84812101076973211988	     21.45235628497104585222	      6.40929614482762666228	     18.01064023489698229241	      0.00000000000000000000	      0.00000000000000000000	     46.30063703623606841120	     -8.67367407080349828163	     61.48758986129320192049	      5.76214027780811477442	     74.67309132424860251831	      0.00000000000000000000	      0.00000000000000000000
     10.71000000000000085265	      3.60676741428832947634	      2.42286116689950103975	   -176.16979901477236580831	      0.24517229202464466131	      0.77426117408632844086	     -0.92066783292039588993	     37.26379175846303581920	    -38.63457427434640578667	    -24.59286550800842974240	     44.47746975835541149991	      0.77627829023950867260	     -3.61049203142487984408	      0.00000000000000000000	      0.00000000000000000000	     45.08692319604703868663	    -41.45290545606493992636	    -14.46519139003624054851	     47.32010705419605045563	      0.82589167049191591907	     -6.63070051040320151969	      0.00000000000000000000	      0.00000000000000000000	    -51.60137833599797119177	      6.26241790396628328352	     -6.28405398160319705880	     43.60382967408415311183	      1.77432546940537028135	     21.38623807760642137055	      6.73093185616256750592	     18.09748919960312107946	      0.00000000000000000000	      0.00000000000000000000	     46.09637230096706161930	     -8.65881237793387015245	     61.16126581256202854320	      5.72556316342974724876	     74.36999882185547505742	      0.00000000000000000000	      0.00000000000000000000
     10.71499999999999985789	      3.98700370725112440695	      2.55879465891279034295	   -176.16959368606867997187	      0.24541852861444943268	      0.77571257976352969710	     -0.92044302042670744779	     37.26107121585843628964	    -38.37391977266960907400	    -24.92212478636671235677	     43.87494351006583315211	      0.76576222337716670641	     -4.06307642205171504202	      0.00000000000000000000	      0.00000000000000000000	     45.25594764944265335771	    -41.29216894604618204312	    -14.30457266300450847041	     46.80991995034578678769	      0.81698722572851456558	     -6.85408315326403272394	      0.00000000000000000000	      0.00000000000000000000	    -50.98872238461370898222	      6.41665201959528452846	     -6.23811380199332443652	     43.60008281724552148262	      1.81393960190808845034	     21.36842607039818986436	      6.31960230740352102430	     18.01398019630642366451	      0.00000000000000000000	      0.00000000000000000000	     45.92564370861597922158	     -8.64062488305135545374	     61.34920386234272626780	      5.77087320108894807902	     75.14488152060033598900	      0.00000000000000000000	      0.00000000000000000000
     10.72000000000000063949	      4.16745581167228973385	      2.55720694021222971770	   -176.25261603768416307503	      0.24555798004024173564	      0.77765557629742110279	     -0.92043704930280190180	     37.12364196196211452161	    -38.15913570809754418178	    -25.10756956250183336010	     43.25097261220235367318	      0.75487187677282374665	     -4.48509646181560928113	      0.00000000000000000000	      0.00000000000000000000	     44.96717919132251495284	    -41.13434559103139065428	    -14.52510368519915573415	     46.23009161617996198856	      0.80686731220096696848	     -7.08455222753377178435	      0.00000000000000000000	      0.00000000000000000000	    -50.61141203583509451391	      6.39030972852188394739	     -6.26839242250558736913	     43.38251292877590259423	      1.76127441049177813071	     21.31800746149608372093	      6.65149259819603155819	     18.09788371651920257932	      0.00000000000000000000	      0.00000000000000000000	     45.73430735089407050964	     -8.56208074435137334035	     61.05978672562166309490	      5.66190409803664440602	     74.78276460727619223690	      0.00000000000000000000	      0.00000000000000000000
     10.72499999999999964473	      4.38425206187133476021	      2.55589014844892892242	   -176.33464129827456190469	      0.24581399261541103662	      0.77955541649907789115	     -0.92049350091511927818	     37.05469528222583619481	    -37.92290674715280118789	    -25.23135816599059211285	     42.63457966310568281187	      0.74411379032500901687	     -4.95031956490535041127	      0.00000000000000000000	      0.00000000000000000000	     44.71770000773484099454	    -40.94837551865430214093	    -14.69939499548297945353	     45.61282359885298376412	      0.79609395293135376548	     -7.34202879487876369780	      0.00000000000000000000	      0.00000000000000000000	    -50.20076041416616163815	      6.35988027489246032786	     -6.22830472291848824540	     43.24814570335852437211	      1.69318599315633822044	     21.32445689659214949074	      6.67672954667972273768	     17.87246499494690255005	      0.00000000000000000000	      0.00000000000000000000	     45.57012907490960174073	     -8.53930396742507191732	     61.07706459046971758653	      5.70746510643252680239	     74.77880369310712183051	      0.00000000000000000000	      0.00000000000000000000
     10.73000000000000042633	      4.74800063778329750619	      2.62526661732407440297	   -176.36996232550632157654	      0.24598614284107853112	      0.78110696244915245323	     -0.92039737169050395149	     37.08098304001272538244	    -37.67204041608568587662	    -25.40900187067447646427	     42.02211610170800781816	      0.73342428463012909745	     -5.34830376849254385263	      0.00000000000000000000	      0.00000000000000000000	     44.74695064841277059031	    -40.77895842419466987394	    -14.69644451165352450062	     45.05457346233053783635	      0.78635064999932935415	     -7.56440815868997162852	      0.00000000000000000000	      0.00000000000000000000	    -49.60238970759842658254	      6.42083646914326600097	     -6.21164549314744629527	     43.14081288778641010140	      1.66715356642343270899	     21.53642559618826979317	      6.31440815311042324964	     18.65684692645901421315	      0.00000000000000000000	      0.00000000000000000000	     45.32331785880428043356	     -8.43855350250145797020	     61.13338230239295256752	      5.66515359729536704947	     73.55530097575547188171	      0.00000000000000000000	      0.00000000000000000000
     10.73499999999999943157	      5.04395149231522754718	      2.71293369225646152643	   -176.31305573777243012046	      0.24624301222094779895	      0.78280329872248688439	     -0.92021270564044277407	     36.96753043596407195537	    -37.45062945862650138906	    -25.72343788264761244022	     41.39486466989676927142	      0.72247668190717428960	     -5.78182380890634828319	      0.00000000000000000000	      0.00000000000000000000	     44.75339720876587534804	    -40.52627220474455782551	    -14.55341645434421771199	     44.43221069078092000382	      0.77548837049395114018	     -7.78025112850267763775	      0.00000000000000000000	      0.00000000000000000000	    -49.06949688579650370457	      6.55476498052035161379	     -6.19460747947556544801	     42.93760426231335003422	      1.57078582702793068115	     21.62888087713033868908	      6.39517566532504666554	     18.38969178311422680849	      0.00000000000000000000	      0.00000000000000000000	     45.20994525621669879456	     -8.50581607030688857662	     61.93392816269943779162	      5.73315889634254993723	     76.36759246394066735775	      0.00000000000000000000	      0.00000000000000000000
     10.74000000000000021316	      5.26743017950501712932	      2.67898048347818917847	   -176.36745556044846239274	      0.24636128018069325396	      0.78474334702465475821	     -0.92030854764361913478	     36.88904128430184670151	    -37.25684788625057564104	    -25.84811754037227160552	     40.78719432349787155090	      0.71187083359577907338	     -6.21517405286576085643	      0.00000000000000000000	      0.00000000000000000000	     44.46655291172071855499	    -40.29643323942136134974	    -14.74625611512156631022	     43.76837582735672782519	      0.76390226643767211723	     -8.04961216387245848125	      0.00000000000000000000	      0.00000000000000000000	    -48.63246280215798833524	      6.50619948754989252393	     -6.21154448449442764257	     42.72608815871387832885	      1.44256091231740124492	     21.57795256715622400634	      6.60245777817548962219	     18.66763492469296181753	      0.00000000000000000000	      0.00000000000000000000	     45.02223566512279262497	     -8.38044519893996842086	     61.37578153078059273184	      5.62883982468043786440	     75.47750224423943166130	      0.00000000000000000000	      0.00000000000000000000
     10.74499999999999921840	      5.59298056253571651553	      2.76428427373278484680	   -176.34031295576124875879	      0.24660349858070562679	      0.78646565573769056101	     -0.92023683694080515849	     36.80315101448952219698	    -36.98066510931209194268	    -26.07076766201812390022	     40.10626000918645672755	      0.69998628782123495373	     -6.64765307510718006512	      0.00000000000000000000	      0.00000000000000000000	     44.46927778115128404579	    -40.06312942086317008261	    -14.64938822807230422995	     43.11655733720207450688	      0.75252588765909522728	     -8.31422578323531524802	      0.00000000000000000000	      0.00000000000000000000	    -48.07053317739502062977	      6.62666742673678665909	     -6.21410000183424049425	     42.70970020663176569542	      1.38516895511004833885	     21.54591681671768199635	      6.58294427392396652721	     18.66114888578376351802	      0.00000000000000000000	      0.00000000000000000000	     44.81503745487361811684	     -8.29711597561850133786	     61.19046864688397135978	      5.57258724753034329069	     74.99192750557425313218	      0.00000000000000000000	      0.00000000000000000000
